<?xml version="1.0" encoding="utf-8"?>
<!DOCTYPE svg PUBLIC "-//W3C//DTD SVG 1.1//EN" "http://www.w3.org/Graphics/SVG/1.1/DTD/svg11.dtd">
<svg version="1.1" xmlns="http://www.w3.org/2000/svg" xmlns:xlink="http://www.w3.org/1999/xlink" x="0px" y="0px"
	 width="100px" height="70px" viewBox="-249.5 335.5 100 70" enable-background="new -249.5 335.5 100 70" xml:space="preserve">
<path fill="#FFFFFF" d="M-194.682,405.479l4.324-0.361c0.062-0.006,0.123-0.033,0.181-0.062l4.034-1.962l4.615-2.11l4.578-2.952
	l1.62-0.767l-0.026-0.033l5.349-2.977l5.142-3.335c0.109-0.069,0.188-0.183,0.217-0.31l2.25-10.06
	c0.033-0.067,0.057-0.139,0.057-0.219c0-0.06-0.01-0.114-0.027-0.166l-0.248-4.599l-1.008-8.527l-0.169-6.977
	c-0.001-0.041-0.008-0.084-0.021-0.125l-1.517-5.211c-0.001-0.002-0.002-0.004-0.003-0.004l-0.084-0.022l-0.082-0.013V354.5
	c0,0,0.078,0,0.076,0l-0.547-1.573c-0.066-0.192-0.243-0.278-0.448-0.286c-0.294-0.014-2.028-0.516-3.521-1.009
	c-0.025-0.024-0.047-0.038-0.076-0.065c-0.032-0.031-0.061-0.056-0.096-0.092c-0.031-0.031-0.062-0.063-0.096-0.097
	c-0.061-0.062-0.12-0.125-0.186-0.196c-0.01-0.012-0.021-0.023-0.029-0.035c-0.352-0.394-0.75-0.9-0.992-1.392
	c-0.01-0.021-0.016-0.041-0.025-0.062c-0.049-0.104-0.094-0.207-0.125-0.305c-0.037-0.123-0.063-0.242-0.07-0.354
	c-0.096-1.51-0.611-6.508-1.715-9.553c-1.188-3.279-5.862-3.959-6.127-3.983h-8.092c-0.002,0-0.002,0-0.002,0h-0.004l-20.926,0.961
	v0.04h-0.41l-4.776,0.264c-0.076,0.004-0.15,0.018-0.216,0.055l-10.283,5.768c-0.04,0.021-0.076,0.047-0.108,0.08l-2.876,2.867
	l-0.845-0.047c-0.076-0.006-0.146,0.009-0.213,0.035l-1.405,0.562c-0.062,0.024-0.12,0.063-0.167,0.11l-5.619,5.604
	c-0.081,0.08-0.131,0.186-0.144,0.297l-0.331,2.973l-1.078,3.186l-1.228,2.378l-3.083,4.372l-1.357,3.047l-1.938,4.955l-3.897,9.395
	l-1.012,4.033c-0.041,0.164,0.003,0.334,0.116,0.459l0.927,1.008c0.116,0.127,0.29,0.183,0.458,0.154
	c0.109-0.021,0.206-0.074,0.279-0.154l0.203,0.406l-0.757,0.754c-0.075,0.074-0.125,0.17-0.141,0.275l-0.168,1.093
	c-0.041,0.263,0.131,0.509,0.391,0.563l2.109,0.445l-0.447,0.779l3.225-1.514l0.947,0.083l0.811,0.991l-0.959,0.914
	c-0.109,0.104-0.165,0.252-0.153,0.401l0.225,2.745c0.022,0.266,0.288,0.461,0.518,0.458l2.921-0.11
	c0.136-0.007,0.263-0.065,0.354-0.166l3.041-3.394l6.894,4.104c0.038,0.021,0.078,0.039,0.12,0.049l4.942,1.402l15.907,5.27
	l-0.226,0.643c-0.051,0.145-0.033,0.305,0.049,0.432c0.082,0.129,0.218,0.215,0.37,0.229l6.349,0.672
	c0.018,0.002,0.036,0.003,0.053,0.003c0.007,0,0.014-0.004,0.021-0.004l0.018,0.002l2.136-0.168c0.092-0.007,0.18,0.168,0.254,0.115
	l1.499-0.873h0.671l1.49,1L-194.682,405.479z M-163.613,375.652l0.221,4.103l-8.037-1.134l-2.34-6.359
	c-0.041-0.107-0.115-0.197-0.215-0.257l-2.539-1.505l-1.037-3.02c-0.017-0.051-0.041-0.098-0.072-0.14l-5.258-6.964l6.312-2.579
	l4.883-0.166c0.057-0.001,0.111-0.012,0.163-0.032l5.394-2.074l1.347,4.627l0.171,6.957L-163.613,375.652z M-201.554,404.385
	l-5.242-0.556l0.185-0.526c0.044-0.126,0.036-0.266-0.023-0.385c-0.059-0.12-0.164-0.212-0.291-0.253l-15.71-5.204l11.262-13.445
	l6.121,2.549c0.003,0,0.006,0,0.009,0.002c0.004,0.002,0.007,0.004,0.011,0.007l2.406,0.881l-0.317,5.442l0.169,6.612
	c0.002,0.091,0.03,0.181,0.08,0.259l1.64,2.532L-201.554,404.385z M-224.91,362.643c-0.008-0.041-0.022-0.084-0.041-0.123
	l-1.29-2.627l0.088-1.322l0,0l0.065-0.971l0.821-1.734l6.891-2.167l4.889-1.136l2.549-0.922l-0.297,5.637
	c-0.002,0.041,0.001,0.082,0.009,0.123l0.308,1.539l-1.127,2.891c-0.003,0.009,0,0.02-0.003,0.027l-1.087,2.807
	c-0.028,0.034-0.059,0.064-0.078,0.107c-0.031,0.066-0.043,0.137-0.043,0.205l-0.562,1.45l-0.983-0.444l-1.604-0.168l-0.754,0.406
	l-6.881,0.086l-0.136,0.025L-224.91,362.643z M-208.479,337.451l20.441-0.645l0.147,3.625c0.004,0.08,0.027,0.159,0.068,0.229
	l0.385,0.659l-0.539,0.484c-0.072,0.065-0.125,0.15-0.148,0.244l-1.744,6.622l-0.812,1.011l-0.264,0.022l-7.443,0.632
	c-0.012,0.001-0.021,0.007-0.032,0.009l-0.052,0.005l-5.411,1.39l-5.164-1.88c-0.055-0.021-0.113-0.03-0.171-0.03
	c-0.005,0-0.009,0.003-0.014,0.003c-0.072,0.002-0.143,0.018-0.209,0.049l-0.673,0.336l-0.775-2.189L-208.479,337.451z
	 M-184.427,360.008l-6.173,3.452l-1.359-0.715c-0.042-0.022-0.087-0.038-0.133-0.047l-3.629-0.732l-3.098-1.206l0.541-4.861
	l0.658-1.967c0.021-0.063,0.029-0.132,0.023-0.199l-0.211-2.445l7.384-0.627l1.752,0.146l0.87,1.2l0.078,3.543
	c0.004,0.106,0.039,0.208,0.104,0.292L-184.427,360.008z M-212.451,365.669l8.938,4.103l-0.241,0.586l-0.9-0.351l-1.947-0.245
	l-1.625-0.81l-4.678-2.113L-212.451,365.669z M-199.814,373.361l1.625,0.992l0.574,1.102l0.049,0.262l-0.998-0.443l-2.068-1.267
	l-1.243-1.396l1.425,0.436L-199.814,373.361z M-195.82,375.68l0.924,0.612l1.406,0.735l0.075,0.736l-2.215-1.226L-195.82,375.68z
	 M-200.004,371.52l-2.519-0.953l-0.229-0.017l0.346-0.842c0.101-0.248-0.011-0.53-0.254-0.642l-9.431-4.328l0.891-2.301l1.16-0.256
	l1.094,1.471c0.059,0.08,0.141,0.14,0.234,0.173l10.501,3.739L-200.004,371.52z M-203.908,352.76c0.042,0,0.084-0.005,0.125-0.016
	l4.99-1.282l0.193,2.251l-0.642,1.919c-0.011,0.034-0.019,0.068-0.023,0.103l-0.527,4.733l-3.297-0.792
	c-0.073-0.017-0.15-0.018-0.225-0.002l-6.596,1.457c-0.026,0.004-0.052,0.01-0.078,0.018l-0.78,0.172l0.835-2.156
	c0.034-0.088,0.042-0.186,0.024-0.278l-0.325-1.618l0.319-6.035l0.727-0.363l5.107,1.859
	C-204.024,352.75-203.966,352.76-203.908,352.76z M-197.843,366.639l-10.39-3.701l-0.737-0.992l5.76-1.271l3.706,0.891l2.98,1.152
	L-197.843,366.639z M-227.588,369.833l1.642-1.176l2.175-0.234l3.748,0.002l3.241,0.124l1.813-0.066l4.494,1.56l0.455,0.573
	l2.461,0.781l-1.814,4.236l-1.211,0.483c-0.04,0.016-0.077,0.036-0.111,0.062l-5.066,3.719l-1.501,0.636l-1.503-1.403
	c-0.161-0.148-0.399-0.176-0.59-0.068l-1.256,0.715l-3.318-3.051l-5.227-5.053L-227.588,369.833z M-210.153,377.018l1.345-0.535
	c0.124-0.049,0.222-0.146,0.274-0.268l1.933-4.515l0.988,0.313l1.777,0.844l2.291,2.279l-3.207,8.19l-0.629,2.103l-5.92-2.469
	l-3.463-2.561L-210.153,377.018z M-202.169,386.632l-2.278-0.835l0.64-2.146l3.093-7.894c0.366,0.229,0.803,0.504,0.856,0.538
	c0.045,0.03,0.121,0.081,2.16,0.956l3.323,1.651l1.463,0.943l2.252,2.471l-1.621,3.132l-4.588,2.262L-202.169,386.632z
	 M-190.175,380.035l-1.326-1.551l-0.408-2.193l-2.903-1.855l-4.299-2.461l1.375-3.033l2.787,1.168l1.674,1.668
	c0.053,0.052,0.114,0.092,0.185,0.117l4.354,1.555l0.555,1.191L-190.175,380.035z M-192.648,370.992l-1.662-1.657
	c-0.047-0.046-0.101-0.082-0.16-0.106l-2.854-1.196l0.249-0.548c0.005-0.01,0.003-0.019,0.007-0.027
	c0.002-0.007,0.008-0.014,0.012-0.02l1.488-4.43l3.207,0.653l1.379,0.726l1.338,3.137l0.601,4.391l0.134,0.413L-192.648,370.992z
	 M-187.218,374.303l-0.856-2.607l-0.589-4.371c-0.006-0.044-0.019-0.088-0.035-0.129l-1.258-2.95l6.14-3.435l5.336,7.069l1.07,3.119
	c0.038,0.112,0.115,0.207,0.219,0.267l2.543,1.508l2.078,5.646l-6.666-1.269l-4.683-0.573L-187.218,374.303z M-174.29,339.823
	c1.081,2.985,1.582,8.075,1.657,9.276c0.095,1.502,1.896,3.176,2.104,3.362c0.051,0.047,0.11,0.081,0.174,0.103
	c0.002,0,0.002,0.002,0.004,0.002c0.854,0.283,2.703,0.885,3.576,1.065l0.332,0.943l-5.369,2.065l-4.889,0.166
	c-0.061,0.002-0.117,0.014-0.173,0.036l-6.642,2.714l-3.209-4.189l-0.08-3.537c-0.002-0.102-0.034-0.199-0.094-0.281l-1.097-1.513
	c-0.085-0.118-0.219-0.193-0.364-0.205l-1.086-0.09l0.424-0.529c0.043-0.055,0.076-0.116,0.094-0.185l1.732-6.58l0.73-0.657
	c0.176-0.158,0.216-0.418,0.097-0.622l-0.526-0.9l-0.143-3.487l7.516-0.16C-179.479,336.625-175.266,337.129-174.29,339.823z
	 M-229.165,346.971l1.208-0.481l0.957,0.051c0.155,0.01,0.28-0.045,0.38-0.146l2.985-2.979l10.122-5.682l3.996-0.234l-2.381,10.447
	c-0.021,0.092-0.015,0.188,0.016,0.277l0.847,2.392l-2.735,0.991l-4.869,1.129l-7.137,2.242c-0.133,0.043-0.242,0.138-0.302,0.264
	l-0.955,2.017c-0.027,0.056-0.042,0.117-0.047,0.181l-0.033,0.496l-2.118-0.436l-5.634-2.626l0.278-2.496L-229.165,346.971z
	 M-247.507,390.113l0.072-0.467l0.896-0.893c0.152-0.152,0.19-0.384,0.094-0.576l-0.843-1.682c-0.088-0.176-0.262-0.275-0.468-0.275
	c-0.197,0.01-0.37,0.133-0.443,0.313l-0.043,0.106l-0.208-0.228l0.923-3.703l3.374-8.075l2.437-6.201l1.3-2.941l3.07-4.346
	l1.293-2.504l0.945-2.778l5.506,2.565c0.036,0.018,0.073,0.029,0.111,0.037l2.311,0.475l-0.068,1.021
	c-0.006,0.087,0.012,0.174,0.05,0.252l1.32,2.688l0.72,3.613l-1.184,0.219l-2.189,1.326l-2.317,2.97l-2.327,2.905l-3.495,3.575
	l-2.475,3.239l-3.175,5.252l-3.068,4.253l-0.156,0.272L-247.507,390.113z M-235.427,391.561c-0.205-0.121-0.469-0.082-0.629,0.096
	l-3.174,3.541l-2.23,0.085l-0.167-2.033l1.121-1.067c0.188-0.182,0.207-0.475,0.042-0.676l-1.236-1.513
	c-0.085-0.104-0.209-0.17-0.344-0.183l-0.443-0.039l2.4-3.52l2.48-4.079l2.126-2.455l2.392-2.61l2.36-2.238l1.053-2.312l5.062,4.894
	l3.596,3.307c0.16,0.148,0.398,0.175,0.587,0.066l1.253-0.714l1.472,1.373c0.095,0.088,0.217,0.135,0.342,0.135
	c0.066,0,0.132-0.014,0.195-0.04l1.473-0.623l3.45,2.551l-11.42,13.63l-4.569-1.295L-235.427,391.561z M-182.006,400.105
	l-4.562,2.08l-3.961,1.918l-4.027,0.312l-1.476-1.007c-0.089-0.073-0.202,0.091-0.319,0.091h-1.012
	c-0.104,0-0.207-0.172-0.293-0.111l-1.516,0.993l-1.374,0.062l0.307-2.16c0.017-0.12-0.01-0.254-0.075-0.354l-1.666-2.578
	l-0.167-6.434l0.304-5.198l4.94,1.005c0.032,0.008,0.066,0.01,0.101,0.01c0.075,0,0.151-0.019,0.222-0.053l4.889-2.41
	c0.096-0.047,0.174-0.123,0.224-0.219l1.511-2.921l7.033,8.32l3.404,4.409l1.553,1.637L-182.006,400.105z M-170.52,393.398l-5.521,3
	l-3.445-4.178l-2.558-3.396l-6.539-7.276l-0.83-0.693l2.019-5.463l3.01,2.072c0.066,0.046,0.144,0.075,0.224,0.085l4.771,0.583
	l7.5,1.43c0.007,0.002,0.014,0.002,0.02,0.002c0.002,0,0.003,0.002,0.005,0.002l8.398,1.186l-2.112,9.443L-170.52,393.398z"/>
<circle fill="#FFF482" cx="-203.5" cy="344.5" r="5"/>
<path fill="#FFF482" d="M-150.5,345.5h-51c-0.552,0-1-0.448-1-1s0.448-1,1-1h51c0.553,0,1,0.448,1,1S-149.947,345.5-150.5,345.5z"/>
</svg>
