<?xml version="1.0" encoding="utf-8"?>
<svg version="1.2" baseProfile="tiny"
	 xmlns="http://www.w3.org/2000/svg" xmlns:xlink="http://www.w3.org/1999/xlink" x="0px" y="0px" width="160px" height="113px"
	 viewBox="0 0 160 113" xml:space="preserve">
<polygon fill="#1D1D1B" points="0,0 0,113 160,99 160,14.098 "/>
<g>
	<g>
		<path fill="#FFFFFF" d="M30.372,67.948h3.763v15.643h7.941v3.32H30.372V67.948z"/>
	</g>
	<g>
		<path fill="#FFFFFF" d="M48.431,44.991h3.968l5.275,19.188h-3.407l-1.008-3.988h-5.689l-1.006,3.988h-3.408L48.431,44.991z
			 M52.459,57.163l-2.044-8.034l-2.044,8.034H52.459z"/>
	</g>
	<g>
		<path fill="#FFFFFF" d="M89.031,44.968h6.339c3.379,0,5.928,2.104,5.928,5.57c0,2.993-1.63,4.711-3.38,5.63l4.477,7.765h-4.298
			l-3.732-6.846h-1.57v6.846h-3.763V44.968z M94.511,53.769c1.631,0,2.936-0.979,2.936-2.697v-0.119
			c0-1.658-1.039-2.666-2.936-2.666h-1.717v5.482H94.511z"/>
	</g>
	<g>
		<path fill="#FFFFFF" d="M59.054,67.96h5.214c4.948,0,7.912,3.29,7.912,9.275v0.414c0,5.896-2.934,9.274-7.884,9.274h-5.242V67.96z
			 M64.296,83.574c2.491,0,4.121-1.866,4.121-6.073v-0.119c0-4.029-1.453-6.074-4.149-6.074h-1.451v12.267H64.296z"/>
	</g>
	<g>
		<path fill="#FFFFFF" d="M95.948,87.183c-0.297,0.029-0.621,0.059-0.947,0.059c-4.029,0-6.609-2.962-6.609-8.8v-1.955
			c0-5.837,2.58-8.8,6.609-8.8s6.606,2.963,6.606,8.8v1.955c0,3.557-0.948,6.046-2.607,7.438l2.844,4.029h-4.442L95.948,87.183z
			 M97.845,78.294v-1.66c0-4.116-1.097-5.599-2.873-5.599c-1.719,0-2.814,1.482-2.814,5.599v1.66c0,4.119,1.096,5.6,2.814,5.6
			C96.748,83.894,97.845,82.413,97.845,78.294z"/>
	</g>
	<g>
		<g>
			<rect x="44.299" y="37.988" fill="#FFFFFF" width="0.002" height="3.345"/>
			<rect x="44.299" y="22.316" fill="#FFFFFF" width="0.002" height="9.287"/>
			<path fill="#FFFFFF" d="M55.889,31.604v-9.287H44.301v18.96h9.068v-3.753H48.07v-5.92H55.889z M48.07,26.051l4.217-0.586v2.991
				L48.07,27.87V26.051z"/>
		</g>
	</g>
	<g>
		<path fill="#FFFFFF" d="M116.385,67.92h-3.578v14.856l-3.035,1.496l-3.025-1.496V67.92h-3.579v16.626l6.598,3.266l6.62-3.266
			V67.92z"/>
	</g>
	<g>
		<polygon fill="#FFFFFF" points="37.945,44.991 37.56,52.435 33.305,52.435 32.92,44.991 29.159,44.991 30.138,63.954 
			33.896,63.954 33.499,56.214 37.366,56.214 36.966,63.954 40.727,63.954 41.704,44.991 		"/>
	</g>
	<g>
		<path fill="#FFFFFF" d="M82.954,44.985h-4.629v3.779h4.629v3.82l-2.851-1.41l-6.609,3.268v7.143l6.598,3.266l2.862-1.411v0.507
			h3.76v-2.361v-7.143v-6.123v-3.334H82.954z M82.95,59.7l-5.693,1.426v-6.309l5.693,1.426V59.7z"/>
	</g>
	<g>
		<polygon fill="#FFFFFF" points="80.189,66.998 77.745,68.149 77.745,70.454 80.187,71.606 82.638,70.454 82.638,68.149 		"/>
		<polygon fill="#FFFFFF" points="83.591,83.167 81.896,73.259 79.319,73.259 74.399,73.259 74.399,76.835 74.399,76.999 
			78.744,76.999 79.776,83.167 74.399,83.167 74.399,83.36 74.399,86.892 74.399,86.909 85.983,86.909 85.983,86.892 85.983,83.36 
			85.983,83.167 		"/>
	</g>
	<g>
		<path fill="#FFFFFF" d="M40.647,38.165c-0.229,0.058-0.464,0.086-0.709,0.086c-0.341,0-0.705-0.055-1.092-0.158
			c-0.58-0.156-1.203-0.431-1.822-0.775c-0.339-0.188-0.673-0.395-1.002-0.61c0.287-0.867,0.526-1.742,0.729-2.614
			c0.346-1.482,0.594-2.96,0.823-4.383c0.378-2.343,0.641-5.059,0.836-7.366l-3.023-0.253c-0.189,2.271-0.45,4.937-0.806,7.134
			c-0.229,1.411-0.467,2.82-0.782,4.18c-0.13,0.559-0.274,1.108-0.435,1.645c-0.035-0.017-0.069-0.035-0.106-0.051l0,0
			c-0.275-0.13-0.554-0.218-0.843-0.278c-0.29-0.061-0.589-0.094-0.901-0.094c-0.388,0.001-0.797,0.049-1.219,0.193
			c-0.21,0.072-0.427,0.17-0.636,0.304c-0.21,0.132-0.416,0.302-0.594,0.51h-0.002c-0.295,0.341-0.486,0.727-0.602,1.103
			c-0.115,0.375-0.16,0.744-0.16,1.095c0.001,0.429,0.064,0.832,0.168,1.213c0.106,0.382,0.252,0.737,0.445,1.072l0,0
			c0.156,0.269,0.353,0.494,0.564,0.678c0.321,0.276,0.67,0.463,1.026,0.585c0.358,0.122,0.724,0.181,1.096,0.182
			c0.266-0.001,0.535-0.031,0.808-0.104c0.273-0.072,0.549-0.186,0.814-0.359l0,0c0.514-0.342,0.92-0.759,1.271-1.202
			c0.098-0.126,0.19-0.255,0.28-0.386c0.491,0.308,1.017,0.604,1.57,0.867c0.539,0.256,1.109,0.479,1.709,0.642
			c0.598,0.163,1.229,0.264,1.885,0.264c0.474,0,0.96-0.053,1.444-0.173c0.485-0.122,0.968-0.312,1.43-0.571l-1.479-2.646
			C41.101,38.022,40.876,38.107,40.647,38.165z M31.556,38.564L31.556,38.564L31.556,38.564L31.556,38.564z M31.605,38.526
			c-0.001,0-0.001,0-0.004,0c-0.031,0.002-0.075-0.007-0.106-0.016c-0.036-0.075-0.074-0.17-0.102-0.27
			c-0.037-0.141-0.059-0.292-0.059-0.411c0-0.066,0.007-0.12,0.015-0.16c0.042-0.007,0.1-0.014,0.164-0.013
			c0.091,0,0.192,0.012,0.278,0.03c0.084,0.017,0.155,0.042,0.172,0.052l0,0c0.094,0.045,0.179,0.087,0.26,0.128
			c-0.038,0.053-0.074,0.105-0.115,0.155C31.938,38.242,31.746,38.426,31.605,38.526z"/>
	</g>
	<g>
		<g>
			<path fill="#FFFFFF" d="M56.846,67.724c-0.001-0.015-0.002-0.029-0.007-0.078c0-0.013-0.003-0.03-0.008-0.052
				c-0.001-0.019-0.002-0.04-0.009-0.069l-0.002-0.008l-3.005,0.324l-0.001,0.01l0.001,0.015c0,0.017,0,0.037,0,0.061
				c0.001,0.399,0.001,2.145,0.001,3.06c0,0.253,0,0.473,0,0.632c0,0.079,0,0.144,0,0.188c0,0.022,0,0.04,0,0.052v0.011v0.006v0.013
				c0.003,1.036,0.018,1.931,0.018,2.735c0,1.153-0.029,2.123-0.156,3.127c-0.127,1.005-0.352,2.06-0.763,3.39
				c-0.33,1.069-0.87,1.888-1.441,2.405c-0.285,0.26-0.576,0.445-0.852,0.562c-0.276,0.118-0.534,0.169-0.773,0.169
				c-0.183,0-0.357-0.029-0.537-0.093c-0.268-0.093-0.553-0.264-0.854-0.581c-0.304-0.315-0.618-0.778-0.898-1.429
				c-0.271-0.63-0.464-1.346-0.589-2.134c-0.122-0.784-0.178-1.638-0.176-2.524c-0.002-1.402,0.132-2.893,0.305-4.357
				c0.175-1.467,0.588-2.707,0.734-4.042l-3.016-0.331c-0.137,1.254-0.551,2.498-0.729,4.018c-0.179,1.523-0.326,3.121-0.326,4.713
				c0,1.008,0.06,2.014,0.214,2.996c0.154,0.983,0.405,1.947,0.797,2.859c0.267,0.617,0.577,1.168,0.93,1.653
				c0.528,0.726,1.164,1.304,1.876,1.694c0.711,0.393,1.498,0.592,2.271,0.59c0.682,0,1.349-0.148,1.965-0.413
				c0.793-0.339,1.507-0.866,2.12-1.524c-0.008,0.25-0.02,0.51-0.042,0.801l3.023,0.222c0.038-0.524,0.054-0.974,0.061-1.406
				c0.007-0.434,0.006-0.848,0.013-1.329c0.03-2.324,0.08-5.018,0.08-7.721c0-2.707-0.049-5.822-0.223-8.211V67.724z"/>
		</g>
	</g>
	<g>
		<path fill="#FFFFFF" d="M127.808,83.46c-0.699,0.26-1.451,0.396-2.182,0.396c-0.793,0-1.557-0.161-2.209-0.474
			c-0.658-0.314-1.212-0.771-1.648-1.42c-0.347-0.519-0.615-1.12-0.795-1.778c-0.179-0.659-0.27-1.374-0.27-2.105
			c-0.002-1.337,0.309-2.725,0.877-3.897c0.281-0.588,0.629-1.121,1.023-1.576c0.394-0.455,0.835-0.834,1.317-1.122
			c0.528-0.317,1.212-0.499,1.86-0.496c0.349,0,0.687,0.049,0.984,0.144c0.223,0.068,0.424,0.16,0.598,0.271
			c0.26,0.167,0.456,0.366,0.607,0.62c0.148,0.252,0.257,0.568,0.286,1.015c0.003,0.056,0.005,0.11,0.005,0.163
			c-0.002,0.453-0.11,0.816-0.301,1.158c-0.143,0.258-0.341,0.498-0.589,0.721c-0.372,0.332-0.862,0.615-1.406,0.809
			c-0.541,0.193-1.131,0.293-1.677,0.292c-0.286,0-0.562-0.026-0.811-0.079l-0.611,2.969c0.468,0.098,0.945,0.143,1.422,0.143
			c0.809-0.001,1.621-0.128,2.401-0.371c0.586-0.184,1.155-0.435,1.687-0.756c0.799-0.482,1.521-1.129,2.059-1.955
			c0.264-0.414,0.481-0.871,0.629-1.365c0.15-0.492,0.229-1.019,0.229-1.564c0-0.113-0.004-0.227-0.012-0.341
			c-0.043-0.782-0.24-1.513-0.572-2.148c-0.244-0.476-0.565-0.896-0.933-1.249c-0.549-0.529-1.2-0.906-1.882-1.15
			c-0.684-0.243-1.4-0.355-2.113-0.355c-1.18,0.001-2.365,0.304-3.413,0.924c-0.786,0.471-1.474,1.065-2.059,1.744
			c-0.879,1.016-1.532,2.211-1.973,3.484c-0.438,1.273-0.665,2.625-0.666,3.972c0,0.981,0.12,1.96,0.377,2.901
			s0.649,1.847,1.198,2.668c0.746,1.117,1.756,1.945,2.865,2.473c1.111,0.527,2.316,0.768,3.514,0.768
			c1.102,0,2.198-0.201,3.232-0.582c1.031-0.382,2.006-0.945,2.84-1.689l-2.015-2.265C129.155,82.821,128.51,83.203,127.808,83.46z"
			/>
	</g>
	<g>
		<g>
			<path fill="#FFFFFF" d="M107.684,64.388c-1.544,0-3.04-0.533-4.142-1.522c-1.34-1.201-1.93-2.903-1.661-4.788
				c0.231-1.625,1.108-3.015,2.536-4.02c1.727-1.218,4.079-1.712,6.138-1.291l-0.719,3.507c-1.073-0.22-2.453,0.073-3.358,0.71
				c-0.609,0.429-0.963,0.967-1.053,1.6c-0.101,0.691,0.066,1.223,0.509,1.617c0.599,0.537,1.614,0.742,2.526,0.51
				c3.196-0.816,3.812-4.822,3.923-6.031c0.289-3.105-0.032-6.406-0.884-9.051l3.407-1.097c1.009,3.134,1.378,6.854,1.042,10.479
				c-0.447,4.797-2.916,8.225-6.603,9.168C108.796,64.319,108.237,64.388,107.684,64.388z"/>
		</g>
		<g>
			<path fill="#FFFFFF" d="M117.119,64.305c-0.606-0.067-1.769-0.293-2.73-1.063c-2.519-2.019-2.255-4.936-2.063-7.064
				c0.058-0.637,0.111-1.239,0.1-1.768l3.579-0.084c0.017,0.732-0.05,1.465-0.112,2.173c-0.197,2.179-0.188,3.21,0.736,3.95
				c0.146,0.115,0.475,0.253,0.883,0.297L117.119,64.305z"/>
		</g>
	</g>
	<g>
		<path fill="#FFFFFF" d="M65.213,64.487c-0.793,0-1.588-0.138-2.354-0.421c-2.935-1.083-4.685-4.005-4.685-7.817h3.143
			c0,2.477,0.958,4.252,2.631,4.87c1.558,0.574,3.36,0.015,4.593-1.427c0.636-0.742,0.627-1.472,0.507-1.954
			c-0.199-0.806-0.844-1.495-1.72-1.843c-0.383-0.153-0.875-0.301-1.394-0.459c-2.228-0.668-5.59-1.679-5.931-5.14
			c-0.175-1.787,0.582-3.422,2.078-4.482c1.804-1.281,4.298-1.494,6.349-0.54c1.232,0.572,3.343,2.072,3.646,5.697l-3.131,0.263
			c-0.129-1.535-0.766-2.611-1.839-3.11c-1.013-0.471-2.332-0.367-3.206,0.253c-0.575,0.407-0.833,0.95-0.769,1.611
			c0.127,1.269,1.55,1.792,3.707,2.44c0.586,0.176,1.142,0.342,1.65,0.546c1.818,0.724,3.168,2.222,3.61,4.009
			c0.412,1.668-0.014,3.4-1.169,4.751C69.406,63.519,67.317,64.487,65.213,64.487z"/>
	</g>
</g>
</svg>
